<?xml version="1.0" standalone="no"?><!DOCTYPE svg PUBLIC "-//W3C//DTD SVG 1.1//EN" "http://www.w3.org/Graphics/SVG/1.1/DTD/svg11.dtd"><svg t="1615682840509" class="icon" viewBox="0 0 1024 1024" version="1.1" xmlns="http://www.w3.org/2000/svg" p-id="7504" xmlns:xlink="http://www.w3.org/1999/xlink" width="200" height="200"><defs><style type="text/css"></style></defs><path d="M512 42.666667C253.290667 42.666667 42.666667 253.290667 42.666667 512s210.624 469.333333 469.333333 469.333333 469.333333-210.624 469.333333-469.333333S770.709333 42.666667 512 42.666667z m0 547.690666c134.570667 0 243.626667 109.056 242.773333 245.333334-68.416 51.882667-154.282667 80.917333-242.773333 80.917333-88.490667 0-174.357333-29.013333-243.626667-82.624 0-134.570667 109.056-243.626667 243.626667-243.626667z m-4.608-482.965333c222.826667 0 409.216 183.488 409.216 404.608 0 95.658667-32.789333 183.765333-93.269333 256.384l-6.144 7.189333-3.712-0.981333a309.248 309.248 0 0 0-180.458667-223.253333l-6.826667-2.858667-0.661333-3.541333c35.114667-32.768 54.528-76.288 54.528-124.928 0-93.12-77.248-170.368-170.368-170.368s-170.346667 77.248-170.346667 170.368c0 46.421333 17.685333 88.192 49.834667 120.384l4.693333 4.544-0.661333 3.541333a309.248 309.248 0 0 0-185.749333 218.837333l-1.557334 7.274667-3.712 0.96c-63.786667-76.053333-99.413333-166.826667-99.413333-263.552 0-221.952 182.656-404.608 404.608-404.608zM512 314.389333c58.666667 0 105.621333 46.933333 105.621333 105.6 0 58.688-46.933333 105.642667-105.621333 105.642667-58.666667 0-105.621333-46.933333-105.621333-105.621333 0-58.666667 46.933333-105.621333 105.621333-105.621334z" p-id="7505" fill="#919191"></path></svg>